<?xml version="1.0" standalone="no"?>
<!DOCTYPE svg PUBLIC "-//W3C//DTD SVG 20010904//EN"
 "http://www.w3.org/TR/2001/REC-SVG-20010904/DTD/svg10.dtd">
<svg version="1.0" xmlns="http://www.w3.org/2000/svg"
 width="300.000000pt" height="321.000000pt" viewBox="0 0 300.000000 321.000000"
 preserveAspectRatio="xMidYMid meet">
<metadata>
Created by potrace 1.10, written by Peter Selinger 2001-2011
</metadata>
<g transform="translate(0.000000,321.000000) scale(0.100000,-0.100000)"
fill="#000000" stroke="none">
<path d="M1507 2961 c-6 -24 -2 -29 42 -47 38 -16 36 -17 45 14 6 19 2 25 -28
37 -46 19 -53 19 -59 -4z"/>
<path d="M1320 2900 c-47 -21 -91 -39 -98 -39 -6 -1 -73 -30 -148 -66 -154
-75 -146 -55 -82 -194 64 -137 62 -131 29 -142 -60 -21 -63 -37 -62 -296 l2
-236 -40 7 c-50 8 -130 -8 -197 -38 -157 -72 -248 -273 -199 -442 33 -116 105
-197 221 -251 50 -23 73 -27 145 -27 80 0 92 3 162 37 86 42 154 110 183 182
l19 45 190 -2 190 -3 -1 -38 c-2 -66 -27 -81 -142 -87 l-97 -5 0 -40 0 -40
319 -3 c233 -2 322 1 333 10 8 6 13 24 11 42 l-3 31 -92 5 c-69 4 -96 9 -111
23 -24 21 -35 61 -27 88 6 18 19 19 301 19 l294 0 32 29 33 29 3 446 c2 388 1
450 -13 476 -9 16 -20 30 -26 30 -6 0 -7 5 -4 10 8 13 -14 42 -26 34 -5 -3 -9
1 -9 9 0 16 -27 30 -40 22 -4 -3 -10 2 -14 10 -6 17 -36 21 -36 4 0 -6 -9 -8
-21 -4 -14 5 -25 2 -30 -6 -4 -8 -16 -14 -26 -14 -10 0 -17 -6 -15 -13 3 -18
-47 -35 -85 -28 -18 2 -33 1 -33 -5 0 -5 4 -9 10 -9 5 0 7 -7 4 -15 -4 -10 3
-18 19 -24 27 -11 45 -31 27 -31 -6 0 -8 -4 -5 -10 3 -6 -1 -7 -9 -4 -11 4
-16 0 -16 -11 0 -9 5 -13 11 -9 14 8 60 -16 53 -28 -7 -11 15 -40 26 -33 4 3
10 -5 13 -16 4 -16 11 -20 26 -16 12 3 22 -1 25 -9 6 -16 36 -19 36 -4 0 6 11
8 25 4 19 -5 25 -2 25 11 0 9 6 15 13 13 8 -3 13 -38 15 -115 2 -105 4 -111
22 -106 18 5 20 0 20 -40 0 -40 -2 -45 -20 -40 -20 5 -20 0 -20 -221 l0 -226
-40 0 -40 0 0 71 c0 109 -36 166 -120 189 -34 9 -122 1 -136 -13 -3 -2 3 -48
12 -101 15 -89 15 -97 -1 -112 -25 -26 -8 -30 20 -4 17 16 23 30 20 49 -3 14
-8 42 -11 61 -3 19 -7 48 -8 65 -1 28 2 30 43 36 37 5 48 2 74 -20 40 -34 57
-78 58 -153 1 -47 3 -57 9 -38 7 23 8 23 9 3 1 -12 7 -24 14 -26 6 -3 -225 -6
-515 -6 l-528 -1 0 43 c0 37 -16 99 -45 170 -6 13 -2 17 16 17 48 0 52 -10 44
-106 -4 -49 -5 -87 -2 -84 3 3 12 45 21 94 11 66 13 93 5 103 -13 15 -53 17
-78 4 -14 -8 -25 -1 -55 35 -21 25 -62 59 -92 75 l-54 31 2 222 3 221 33 0
c33 0 34 -1 83 -115 27 -63 53 -118 59 -124 9 -9 442 174 469 200 12 11 12 16
1 28 -11 14 -4 16 66 16 68 1 77 3 62 14 -25 18 -23 46 3 46 16 0 19 4 14 20
-5 15 -3 18 10 14 9 -4 25 2 38 13 33 30 59 41 103 44 48 3 95 -9 110 -29 9
-13 12 -13 17 1 4 10 -3 21 -19 31 -13 9 -24 12 -24 6 0 -18 -18 -11 -23 10
-6 22 -43 28 -50 8 -4 -10 -7 -10 -18 0 -21 19 -49 15 -49 -8 0 -21 -15 -27
-25 -10 -10 16 -35 -1 -32 -23 2 -21 -2 -22 -118 -25 l-120 -3 -57 135 -58
134 25 56 c14 31 25 60 25 65 0 13 -58 34 -75 27 -8 -3 -15 -13 -15 -22 0 -10
6 -14 14 -11 8 3 22 -1 33 -9 10 -9 13 -13 7 -10 -15 7 -25 -19 -17 -41 4 -10
2 -14 -4 -10 -7 5 -9 -1 -5 -15 3 -14 2 -19 -7 -14 -8 6 -8 1 0 -18 9 -19 9
-32 -1 -55 -11 -28 -7 -41 53 -180 l65 -149 -49 -21 c-27 -11 -49 -25 -49 -32
0 -6 -7 -9 -14 -6 -8 3 -70 -19 -137 -49 -67 -30 -126 -51 -130 -47 -9 10
-229 511 -229 522 0 5 11 12 24 15 14 3 38 17 54 31 37 31 157 86 198 90 16 2
46 10 65 18 l34 14 26 -62 26 -63 -27 -58 c-26 -58 -28 -59 -108 -93 -45 -19
-82 -38 -82 -43 0 -12 5 -11 77 22 36 17 67 30 70 30 2 0 1 -11 -3 -24 -5 -21
-1 -25 24 -31 17 -3 33 -13 36 -20 4 -11 11 -12 36 -4 16 6 30 15 30 20 0 6
-9 5 -20 -1 -24 -13 -25 -6 -5 49 16 47 4 56 -15 10 -9 -21 -15 -27 -21 -17
-6 9 -10 8 -15 -6 -5 -13 -9 -14 -14 -5 -10 15 -1 41 11 33 5 -3 6 2 3 10 -3
9 -1 16 5 16 6 0 8 7 4 17 -4 10 -2 14 4 10 6 -4 11 2 12 16 3 61 9 105 19
129 9 22 8 36 -8 73 -11 25 -23 45 -27 44 -4 0 -46 -18 -93 -39z m230 -317 c0
-7 5 -13 10 -13 6 0 10 -10 11 -22 0 -13 9 -36 19 -53 34 -53 63 -109 70 -135
7 -27 -8 -39 -83 -65 -56 -19 -54 -2 3 25 28 13 50 27 50 30 0 4 -21 52 -46
106 -64 137 -65 141 -48 141 8 0 14 -6 14 -14z m868 -121 c16 -21 27 -43 25
-49 -3 -7 0 -13 6 -13 16 0 13 -27 -3 -33 -9 -4 -12 -14 -9 -26 4 -15 1 -21
-11 -21 -9 0 -16 -7 -16 -15 0 -9 -9 -15 -25 -15 -14 0 -25 -4 -25 -9 0 -12
-59 -6 -73 8 -6 6 -16 11 -22 11 -13 0 -75 67 -75 81 0 5 -7 21 -16 34 -12 18
-13 25 -4 25 7 0 33 15 59 34 76 56 139 52 189 -12z m-1323 -32 c20 -38 21
-67 1 -51 -18 16 -64 4 -76 -19 -6 -11 -10 -109 -10 -220 0 -156 -3 -201 -12
-198 -10 4 -13 58 -12 226 0 219 0 222 24 247 13 14 29 25 37 25 7 0 13 5 13
10 0 20 20 9 35 -20z m685 -21 c0 -29 0 -29 -59 -29 -57 0 -59 1 -70 31 -6 18
-11 32 -11 33 0 1 31 0 70 -2 70 -4 70 -4 70 -33z m685 -174 c-4 -117 -9 -140
-26 -130 -15 10 -12 206 4 203 7 -2 11 6 10 20 -2 12 2 22 7 22 6 0 8 -45 5
-115z m-980 28 c-11 -3 -24 -10 -30 -17 -12 -14 -206 -88 -213 -81 -3 2 6 9
19 14 13 5 65 27 114 50 50 22 99 40 110 40 20 -1 20 -1 0 -6z m995 -233 c0
-27 -4 -50 -10 -50 -5 0 -10 23 -10 50 0 28 5 50 10 50 6 0 10 -22 10 -50z
m-24 -306 c-1 -201 -1 -206 -25 -230 l-23 -24 -283 0 c-239 0 -284 -2 -295
-15 -17 -21 -176 -21 -200 0 -12 11 -53 14 -189 15 -163 2 -174 1 -195 -19
l-23 -22 5 99 c4 88 2 104 -21 160 -13 34 -21 62 -17 62 16 0 49 -67 55 -110
4 -25 11 -65 16 -90 l10 -45 571 2 c326 1 575 6 580 11 5 5 9 101 8 214 0 189
4 234 20 208 3 -5 6 -102 6 -216z m-1436 181 c7 -14 17 -25 22 -25 4 0 8 -5 8
-12 0 -9 -3 -9 -12 0 -7 7 -20 12 -29 12 -10 0 -30 5 -44 10 -23 9 -25 13 -15
25 19 23 55 18 70 -10z m2 -55 c72 -34 124 -85 159 -156 27 -55 32 -76 32
-138 0 -126 -69 -238 -181 -293 -49 -24 -69 -28 -142 -28 -69 0 -94 5 -135 25
-184 90 -243 320 -124 485 87 120 260 167 391 105z m768 -450 c7 -16 10 -41 8
-54 -5 -26 7 -36 42 -36 10 0 20 -5 22 -12 3 -7 32 -14 76 -16 40 -2 72 -8 72
-12 0 -24 -550 -24 -574 0 -7 7 13 10 58 10 40 0 79 6 94 14 15 8 38 17 52 20
19 4 25 12 26 34 1 16 4 41 8 55 6 25 11 27 55 27 45 0 50 -2 61 -30z"/>
<path d="M2258 2478 c-13 -13 -16 -17 -6 -9 10 8 38 18 61 22 l42 6 -37 2
c-26 1 -44 -6 -60 -21z"/>
<path d="M2266 2459 c-20 -16 -26 -29 -26 -60 l0 -39 75 0 c43 0 75 4 75 10 0
6 -30 10 -70 10 -72 0 -79 5 -64 45 8 19 56 45 81 44 16 0 16 -1 -2 -9 -17 -8
-16 -9 9 -9 24 -1 27 1 16 14 -18 21 -63 19 -94 -6z"/>
<path d="M2221 2377 c-2 -33 53 -77 94 -77 41 0 95 44 94 77 0 15 -2 14 -9 -4
-10 -24 -58 -53 -87 -53 -24 0 -76 35 -85 57 -6 17 -7 17 -7 0z"/>
<path d="M880 1815 c0 -19 5 -35 10 -35 6 0 10 16 10 35 0 19 -4 35 -10 35 -5
0 -10 -16 -10 -35z"/>
<path d="M911 1710 c-16 -76 -28 -110 -38 -110 -7 0 -18 -12 -24 -27 -6 -16
-15 -36 -20 -45 -5 -10 -5 -19 1 -23 6 -3 10 1 10 11 0 13 3 14 14 4 8 -6 13
-17 10 -25 -3 -7 0 -16 6 -20 7 -4 13 1 16 12 3 10 15 23 27 28 27 12 34 51
14 73 -14 15 -13 28 9 117 28 118 27 115 11 115 -8 0 -21 -40 -36 -110z"/>
<path d="M740 1797 c0 -7 7 -23 16 -36 23 -33 41 -11 19 23 -18 28 -35 34 -35
13z"/>
<path d="M1005 1781 c-10 -20 -12 -32 -4 -36 6 -4 11 -5 13 -4 23 36 34 58 29
63 -12 12 -23 6 -38 -23z"/>
<path d="M635 1701 c-6 -11 32 -41 52 -41 20 0 15 17 -9 34 -26 18 -35 20 -43
7z"/>
<path d="M1100 1690 c-14 -10 -21 -22 -17 -27 10 -9 60 18 59 32 -1 17 -16 15
-42 -5z"/>
<path d="M980 1641 c-25 -21 -42 -42 -38 -46 7 -7 108 64 108 77 0 18 -28 6
-70 -31z"/>
<path d="M600 1555 c0 -10 11 -15 35 -15 24 0 35 5 35 15 0 10 -11 15 -35 15
-24 0 -35 -5 -35 -15z"/>
<path d="M1117 1564 c-16 -17 -5 -25 31 -22 20 2 37 8 37 13 0 12 -57 19 -68
9z"/>
<path d="M651 1431 c-14 -11 -20 -21 -13 -25 15 -9 62 14 62 31 0 18 -21 16
-49 -6z"/>
<path d="M1080 1441 c0 -11 39 -41 52 -41 16 0 7 30 -11 40 -24 13 -41 13 -41
1z"/>
<path d="M756 1349 c-18 -26 -21 -49 -7 -49 5 0 16 12 26 26 22 34 4 56 -19
23z"/>
<path d="M998 1364 c-11 -10 20 -64 37 -64 8 0 15 3 15 8 0 14 -45 63 -52 56z"/>
<path d="M880 1295 c0 -25 4 -35 13 -32 6 2 12 16 12 32 0 16 -6 30 -12 33 -9
2 -13 -8 -13 -33z"/>
<path d="M1143 2875 c-19 -8 -33 -21 -33 -31 0 -15 3 -15 23 4 13 12 35 23 49
24 15 1 24 6 22 10 -7 11 -24 9 -61 -7z"/>
<path d="M2106 2724 c-3 -8 -12 -11 -21 -8 -10 4 -15 0 -15 -10 0 -9 -7 -16
-16 -16 -11 0 -14 -6 -9 -20 4 -11 2 -20 -4 -20 -6 0 -11 -7 -11 -15 0 -16 15
-21 23 -7 2 4 2 1 1 -5 -2 -7 1 -13 6 -13 6 0 10 -6 10 -14 0 -22 40 -46 75
-46 42 0 75 36 75 82 0 34 -24 68 -48 68 -6 0 -13 4 -17 10 -8 13 52 -9 63
-23 5 -7 13 -24 18 -39 7 -21 12 -25 24 -17 13 8 13 11 -2 23 -10 7 -15 16
-11 20 8 8 -33 47 -55 51 -9 2 -17 4 -17 5 0 1 -14 3 -32 5 -20 2 -34 -3 -37
-11z m-2 -33 c7 -11 -18 -33 -27 -24 -4 3 -7 0 -7 -7 0 -7 -3 -11 -6 -8 -6 7
17 48 28 48 4 0 9 -4 12 -9z m90 -27 c23 -22 20 -51 -9 -79 -30 -31 -59 -32
-79 -3 -21 30 -20 54 4 78 24 24 63 26 84 4z"/>
<path d="M1167 2637 c-4 -10 -7 -30 -7 -44 0 -19 -4 -24 -16 -19 -9 3 -21 6
-27 6 -7 0 -3 7 7 15 21 16 10 21 -12 6 -11 -7 -11 -15 2 -45 14 -34 16 -35
42 -24 14 7 22 14 16 16 -7 2 -7 15 0 38 11 41 7 82 -5 51z"/>
<path d="M2240 2605 c-7 -9 -10 -18 -7 -21 7 -7 -29 -44 -43 -44 -5 0 -10 -3
-10 -7 0 -11 -54 -10 -61 0 -4 5 -12 6 -19 2 -8 -5 -2 -12 16 -21 19 -10 30
-11 34 -4 4 6 14 8 23 4 10 -3 17 -1 17 5 0 7 6 11 13 9 7 -2 13 1 14 7 1 5
11 12 22 17 13 4 19 13 15 23 -3 8 -1 15 5 15 6 0 11 7 11 15 0 19 -14 19 -30
0z"/>
<path d="M2030 2600 c0 -6 7 -13 15 -16 8 -4 13 -9 11 -13 -7 -10 12 -37 19
-29 4 4 -1 20 -11 37 -18 31 -34 40 -34 21z"/>
<path d="M1207 2530 c-4 -14 -7 -35 -7 -48 0 -20 -2 -21 -22 -11 -21 11 -21
12 -3 25 22 16 12 19 -16 4 -18 -10 -18 -12 -3 -43 9 -18 18 -33 19 -35 2 -2
17 4 35 13 26 13 31 21 25 38 -3 12 -10 36 -14 52 l-7 30 -7 -25z m23 -66 c0
-13 -45 -35 -54 -27 -13 13 -5 24 14 18 17 -5 20 -2 20 22 0 22 2 25 10 13 5
-8 10 -20 10 -26z"/>
<path d="M1340 2526 c0 -11 -15 -23 -40 -33 -22 -9 -40 -20 -40 -25 0 -11 4
-10 45 9 33 16 54 47 41 60 -3 4 -6 -2 -6 -11z"/>
<path d="M1910 2473 c-28 -19 -49 -43 -50 -56 0 -5 12 5 26 22 14 17 40 35 57
40 21 6 25 9 12 10 -11 1 -32 -7 -45 -16z"/>
<path d="M2007 2479 c43 -13 83 -62 83 -104 0 -40 -51 -100 -93 -110 -36 -9
-82 10 -96 41 -23 51 -19 54 84 54 l95 0 -6 28 c-11 45 -33 62 -78 61 l-41 -2
40 -6 c51 -9 65 -17 65 -42 0 -17 -7 -19 -75 -19 -43 0 -75 4 -75 10 0 6 -9 1
-21 -11 -18 -18 -19 -25 -9 -52 8 -25 8 -29 -2 -19 -6 6 -15 31 -19 54 -6 42
-7 42 -8 8 -3 -92 98 -157 179 -115 66 34 90 113 54 175 -19 31 -63 60 -91 59
-10 0 -4 -5 14 -10z"/>
<path d="M1450 2438 c-36 -17 -85 -39 -109 -49 -24 -11 -41 -22 -38 -26 7 -6
205 76 214 89 10 18 -3 15 -67 -14z"/>
<path d="M1928 2454 c-27 -14 -54 -51 -45 -61 3 -2 8 5 12 16 7 23 34 41 80
52 27 6 28 7 5 8 -14 0 -37 -6 -52 -15z"/>
<path d="M1250 2433 c0 -13 -6 -23 -13 -23 -7 0 -21 -6 -31 -13 -15 -11 -16
-17 -5 -42 7 -17 14 -32 15 -33 2 -2 19 2 39 9 39 14 38 13 11 84 -11 29 -15
34 -16 18z m24 -59 c7 -19 8 -17 -21 -33 -28 -14 -30 -14 -37 5 -4 12 -1 14
14 9 16 -5 20 -2 20 14 0 25 15 28 24 5z"/>
<path d="M1800 2320 c6 -11 15 -20 20 -20 6 0 10 9 10 20 0 13 -7 20 -20 20
-18 0 -19 -3 -10 -20z"/>
<path d="M2138 2321 c-10 -10 -18 -27 -18 -38 0 -13 -8 -23 -21 -26 -15 -4
-20 -11 -16 -21 4 -9 2 -16 -3 -16 -6 0 -10 -7 -10 -16 0 -9 7 -14 18 -12 12
2 16 11 14 27 -3 20 0 23 17 18 23 -6 49 17 31 28 -17 11 -11 32 11 38 12 3
19 11 17 18 -7 20 -21 19 -40 0z"/>
<path d="M1831 2286 c-12 -14 -11 -19 4 -36 13 -15 22 -17 29 -10 8 8 8 13 0
18 -7 4 -13 16 -15 26 -4 18 -5 18 -18 2z"/>
<path d="M1870 2227 c0 -20 27 -40 45 -33 20 7 19 22 -2 30 -10 3 -24 9 -30
12 -7 3 -13 -1 -13 -9z"/>
<path d="M2023 2203 c-9 -14 -14 -15 -21 -5 -5 8 -19 10 -41 6 -35 -7 -37 -23
-3 -35 16 -6 22 -5 22 6 0 17 16 20 25 5 8 -13 45 -13 45 -1 0 5 3 16 6 25 8
22 -18 21 -33 -1z"/>
<path d="M1622 2130 c-87 -53 -95 -157 -17 -230 21 -20 39 -25 96 -28 80 -5
118 8 153 49 52 62 34 166 -36 209 -46 28 -150 28 -196 0z m162 -15 c13 -9 29
-29 36 -45 7 -16 17 -28 24 -27 6 1 12 -10 14 -25 2 -18 -1 -28 -10 -28 -7 0
-21 -18 -30 -40 -22 -54 -64 -72 -133 -59 -32 6 -56 17 -67 31 -10 13 -23 29
-29 37 -7 7 -12 30 -12 51 0 39 27 76 78 107 29 17 102 16 129 -2z"/>
<path d="M1983 2070 c-60 -36 -82 -129 -46 -191 35 -59 150 -87 226 -55 52 22
79 59 85 114 9 99 -47 152 -163 152 -52 0 -78 -5 -102 -20z m186 -34 c33 -36
39 -110 12 -153 -22 -36 -76 -69 -86 -53 -3 6 -20 10 -36 10 -50 0 -86 25
-104 73 -16 42 -16 46 2 83 20 42 55 64 118 74 46 7 61 2 94 -34z"/>
<path d="M1315 2069 c-96 -15 -147 -107 -106 -191 25 -52 47 -67 113 -77 114
-18 188 28 195 121 8 109 -72 168 -202 147z m103 -25 c52 -36 68 -123 32 -181
-27 -45 -53 -56 -113 -48 -40 6 -59 15 -85 41 -32 32 -34 38 -30 85 6 61 35
95 92 108 61 13 79 13 104 -5z"/>
<path d="M2410 2015 c0 -25 14 -33 25 -15 3 6 1 10 -6 10 -8 0 -8 4 1 15 10
12 10 15 -4 15 -10 0 -16 -9 -16 -25z"/>
<path d="M1565 1840 c-11 -4 -31 -20 -44 -34 -21 -22 -33 -26 -83 -26 -97 0
-99 -2 -79 -114 16 -86 16 -97 2 -111 -8 -8 -12 -15 -9 -15 20 0 38 36 38 76
0 37 3 44 20 44 11 0 20 4 20 9 0 5 -11 8 -24 5 -27 -5 -43 21 -26 41 8 9 7
14 -2 18 -10 3 -10 7 -1 17 19 20 41 4 46 -32 3 -29 4 -28 5 10 2 40 4 43 25
36 12 -3 28 -11 35 -16 8 -7 12 -7 12 0 0 7 16 11 35 10 34 -1 35 -2 35 -44 0
-36 -3 -42 -17 -37 -13 5 -15 2 -10 -11 4 -10 8 -43 9 -74 l1 -57 6 50 c5 39
10 50 24 50 9 0 17 -4 16 -9 -1 -15 25 -26 33 -13 5 8 15 4 32 -12 24 -23 26
-23 50 -7 34 22 40 52 28 134 -5 37 -6 72 -2 77 5 6 8 15 7 20 -4 23 65 16
104 -9 21 -15 39 -29 39 -32 0 -3 -14 -22 -30 -43 -24 -30 -32 -50 -37 -103
-3 -40 -1 -72 5 -84 9 -15 11 -4 12 54 0 78 8 101 48 145 25 26 52 36 52 19 0
-5 16 -7 36 -5 l37 2 -7 -52 c-19 -136 -19 -131 4 -154 11 -13 26 -23 32 -23
6 0 2 10 -9 23 -20 21 -20 25 -7 97 7 41 13 85 14 97 0 30 -30 45 -68 34 -25
-8 -34 -5 -49 11 -10 11 -30 26 -45 34 -31 16 -149 19 -164 4 -7 -7 -5 -41 5
-105 15 -95 15 -96 -7 -118 l-22 -21 -21 20 c-21 21 -21 23 -5 120 12 77 13
100 3 106 -16 10 -76 9 -102 -2z m74 -31 c11 -18 11 -23 -1 -30 -18 -12 -104
-7 -98 6 3 6 8 9 13 8 4 -2 7 1 7 6 0 8 39 27 60 30 3 1 11 -9 19 -20z m-6
-76 c-7 -69 -12 -83 -33 -83 -25 0 -27 20 -2 21 16 1 16 2 0 6 -13 3 -18 15
-18 43 0 35 3 39 28 43 15 2 27 5 27 6 1 0 -1 -16 -2 -36z"/>
<path d="M420 819 c0 -7 10 -9 25 -5 l25 6 0 -125 c0 -77 4 -125 10 -125 6 0
10 47 10 120 l0 120 25 0 c14 0 25 5 25 10 0 6 -27 10 -60 10 -37 0 -60 -4
-60 -11z"/>
<path d="M595 818 c-9 -30 -53 -243 -50 -247 10 -10 25 14 25 40 0 26 3 29 34
29 35 0 46 -13 46 -51 0 -10 5 -19 10 -19 6 0 10 6 10 13 0 11 -26 137 -45
225 -6 24 -23 30 -30 10z m31 -99 l11 -59 -30 0 c-22 0 -28 4 -23 15 3 8 8 37
12 65 8 62 16 57 30 -21z"/>
<path d="M705 806 c-20 -30 -11 -50 51 -118 24 -26 44 -53 44 -61 0 -41 -65
-51 -80 -12 -5 14 -14 25 -20 25 -13 0 -13 -3 2 -35 21 -46 84 -47 106 -3 16
34 7 54 -54 120 -49 52 -51 59 -28 83 23 22 46 15 64 -20 14 -29 15 -29 18 -7
5 33 -15 52 -54 52 -24 0 -38 -7 -49 -24z"/>
<path d="M850 700 c0 -80 4 -130 10 -130 6 0 10 24 10 54 0 82 21 90 50 18 24
-60 36 -79 45 -70 3 3 -10 38 -28 78 l-33 73 29 54 c21 39 25 53 14 53 -8 0
-27 -29 -43 -65 -16 -35 -31 -65 -34 -65 -3 0 -4 29 -2 65 3 44 1 65 -7 65 -7
0 -11 -41 -11 -130z"/>
<path d="M1050 700 c0 -80 4 -130 10 -130 6 0 10 41 11 103 l0 102 26 -102
c13 -57 28 -103 32 -103 4 0 19 46 32 103 l24 102 3 -102 c1 -58 7 -103 12
-103 6 0 10 21 10 48 0 82 -13 212 -21 212 -4 0 -19 -48 -33 -106 -25 -104
-36 -135 -36 -100 0 45 -44 206 -57 206 -10 0 -13 -28 -13 -130z"/>
<path d="M1285 808 c-19 -86 -45 -214 -45 -225 0 -7 5 -13 10 -13 6 0 10 9 10
19 0 38 11 51 46 51 31 0 34 -3 34 -29 0 -26 15 -50 25 -40 1 2 -9 60 -24 128
-26 121 -45 157 -56 109z m45 -140 c0 -5 -13 -8 -29 -8 -29 0 -29 0 -20 43 21
96 21 96 35 32 7 -33 13 -63 14 -67z"/>
<path d="M1400 700 c0 -91 3 -130 12 -130 8 0 9 29 5 106 -3 59 -4 105 -2 103
2 -2 21 -49 43 -104 22 -54 44 -101 49 -102 6 -2 10 49 12 127 1 82 -2 130 -8
130 -6 0 -11 -42 -13 -102 l-3 -103 -40 103 c-22 56 -43 102 -47 102 -5 0 -8
-58 -8 -130z"/>
<path d="M1596 813 c-10 -35 -46 -213 -46 -228 0 -8 5 -15 10 -15 6 0 10 10
10 23 0 35 15 49 46 45 23 -2 30 -9 34 -32 3 -16 10 -31 16 -33 7 -2 1 44 -16
124 -25 120 -42 157 -54 116z m39 -130 c5 -20 1 -23 -26 -23 -23 0 -30 4 -26
14 3 8 9 32 12 53 11 64 18 70 26 23 5 -25 11 -55 14 -67z"/>
<path d="M1716 808 c-12 -16 -16 -47 -16 -108 0 -98 14 -130 59 -130 15 0 32
5 39 12 9 9 12 9 12 0 0 -7 5 -12 10 -12 7 0 10 24 8 63 -3 62 -3 62 -35 65
-19 2 -33 -1 -33 -7 0 -6 11 -11 25 -11 20 0 25 -5 25 -26 0 -39 -18 -64 -45
-64 -35 0 -45 27 -45 119 0 59 4 84 16 95 29 29 64 15 64 -25 0 -19 5 -29 15
-29 12 0 14 7 9 28 -10 41 -23 52 -60 52 -23 0 -38 -7 -48 -22z"/>
<path d="M1870 700 l0 -130 45 0 c25 0 45 5 45 10 0 6 -16 10 -35 10 l-35 0 0
55 c0 55 0 55 31 55 19 0 28 4 23 11 -3 6 -17 9 -30 6 -23 -4 -24 -1 -24 44
l0 49 35 0 c19 0 35 5 35 10 0 6 -20 10 -45 10 l-45 0 0 -130z"/>
<path d="M1990 700 c0 -80 4 -130 10 -130 6 0 10 41 11 103 l0 102 20 -80 c10
-44 21 -90 24 -102 10 -43 22 -23 46 80 l24 102 3 -102 c2 -68 7 -103 14 -103
8 0 9 29 5 98 -4 53 -7 112 -7 130 0 62 -18 31 -46 -80 l-28 -113 -24 113
c-17 75 -29 112 -39 112 -10 0 -13 -28 -13 -130z"/>
<path d="M2190 700 l0 -130 45 0 c25 0 45 5 45 10 0 6 -16 10 -35 10 l-35 0 0
55 c0 54 0 55 30 55 17 0 30 5 30 11 0 7 -12 10 -30 7 -30 -5 -30 -4 -30 44
l0 48 35 0 c19 0 35 5 35 10 0 6 -20 10 -45 10 l-45 0 0 -130z"/>
<path d="M2310 701 c0 -81 4 -131 10 -131 6 0 10 43 10 108 l1 107 42 -107
c23 -60 45 -108 49 -108 5 0 8 59 8 130 0 85 -4 130 -11 130 -7 0 -9 -34 -7
-99 2 -55 1 -97 -2 -95 -3 3 -21 47 -41 97 -20 50 -42 93 -48 95 -8 3 -11 -35
-11 -127z"/>
<path d="M2460 820 c0 -5 11 -10 25 -10 l25 0 0 -120 c0 -73 4 -120 10 -120 6
0 10 48 10 125 l0 125 25 -6 c15 -4 25 -2 25 5 0 7 -23 11 -60 11 -33 0 -60
-4 -60 -10z"/>
<path d="M0 191 c0 -17 8 -20 48 -23 36 -2 46 -6 43 -18 -14 -54 -12 -70 13
-95 23 -23 33 -26 98 -24 41 1 85 -4 100 -11 23 -11 31 -10 53 4 24 16 26 22
24 79 l-3 62 1100 0 1099 0 -3 -30 c-2 -16 -8 -36 -14 -43 -9 -10 -6 -18 8
-33 17 -17 35 -19 163 -20 123 0 146 2 162 17 12 11 17 24 13 33 -4 9 -6 27
-6 41 1 21 0 23 -11 10 -16 -20 -83 -28 -72 -8 6 10 5 11 -6 1 -20 -19 -109
-17 -109 2 0 18 31 20 48 3 8 -8 12 -9 12 -1 0 7 28 14 68 17 150 12 172 17
172 37 0 19 -32 19 -1500 19 -1479 0 -1500 0 -1500 -19z m180 -67 c0 -31 2
-34 15 -20 18 17 20 30 4 20 -7 -4 -10 -1 -7 7 3 10 22 14 64 14 l59 0 6 -35
6 -35 2 38 c2 56 21 45 21 -13 0 -36 -4 -52 -15 -57 -22 -8 -33 6 -15 17 10 7
11 10 3 10 -8 0 -14 14 -15 33 l-1 32 -4 -32 c-3 -25 -9 -33 -24 -33 -14 0
-19 8 -21 33 l-1 32 -4 -32 -4 -32 -64 0 c-67 0 -90 13 -62 34 22 16 22 26 0
18 -16 -6 -16 -5 -4 10 19 24 35 16 42 -19 6 -24 6 -22 4 9 -2 20 1 37 6 37 5
0 9 -16 9 -36z m2510 9 c11 -10 -22 -18 -60 -15 -24 3 -40 9 -40 17 0 9 13 11
48 7 26 -2 49 -7 52 -9z m122 -44 c62 0 78 -3 78 -15 0 -11 -11 -13 -50 -11
-27 1 -50 -1 -50 -6 0 -6 -5 -5 -12 0 -7 5 -48 9 -90 8 -49 -1 -78 3 -78 9 0
6 -4 5 -9 -3 -5 -7 -14 -10 -20 -7 -24 15 -8 26 39 26 29 0 50 -5 50 -11 0 -6
7 -3 16 6 9 9 24 13 33 10 9 -3 51 -6 93 -6z"/>
</g>
</svg>
